<?xml version="1.0" standalone="no"?>
<!DOCTYPE svg PUBLIC "-//W3C//DTD SVG 1.1//EN" "http://www.w3.org/Graphics/SVG/1.1/DTD/svg11.dtd">
<svg xmlns="http://www.w3.org/2000/svg" xmlns:xlink="http://www.w3.org/1999/xlink" version="1.1" id="Layer_1" x="0px" y="0px" viewBox="0 0 560 560" style="enable-background:new 0 0 560 560;" xml:space="preserve" width="560" height="560">
<style type="text/css">
	.st0{fill:#C91A2B;}
	.st1{fill:#4D262A;}
	.st2{fill:#543033;}
	.st3{fill:#533C3E;}
	.st4{fill:#595454;}
	.st5{fill:#524A4B;}
	.st6{fill:#832129;}
	.st7{fill:#932A33;}
	.st8{fill:#7A4548;}
	.st9{fill:#93928F;}
	.st10{fill:#E1D4D2;}
	.st11{fill:#1C1816;}
	.st12{fill:#A21D29;}
	.st13{fill:#B11F2C;}
	.st14{fill:#211716;}
	.st15{fill:#AD1D2B;}
	.st16{fill:#751720;}
	.st17{fill:#ECE1DF;}
	.st18{fill:#9D1925;}
	.st19{fill:#50151C;}
	.st20{fill:#58151C;}
	.st21{fill:#5A161D;}
	.st22{fill:#AD1927;}
	.st23{fill:#42151B;}
	.st24{fill:#EDA6A9;}
	.st25{fill:#7E252C;}
	.st26{fill:#BA1A29;}
	.st27{fill:#BF1A2A;}
	.st28{fill:#B6B6B3;}
</style>
<g>
	<g>
		<path class="st0" d="M114.32,414.28c-2.88-4.27-5.77-8.53-8.65-12.81c-0.96-3.22-1.4-6.73-2.97-9.62    c-7.22-13.23-9.55-27.41-9.21-42.27c0.27-11.7,0.07-23.41,0.4-35.1c0.28-9.89-0.97-19.26-5.29-28.4    c-5.6-11.86-10.34-24.12-15.45-36.21c0.04-5.99,0.08-11.98,0.13-17.97c0.13-0.66,0.1-1.31-0.09-1.95    c1.03-4.24,2.06-8.48,3.09-12.72c0.13-0.61,0.14-1.21,0.02-1.82c0.83-0.25,1.64-0.56,2.43-0.93c3.06-2.47,6.14-4.91,9.16-7.42    c2.77-2.3,5.34-6.02,8.82-0.88c-1.57,7.18-3.15,14.36-4.72,21.55c1.03,0.31,2.06,0.62,3.09,0.93c0.97-2.35,2.14-4.64,2.86-7.06    c5.6-18.67,14.15-35.89,25.04-52.02c5.03-7.45,9.82-15.06,14.72-22.6l-0.24,0.21c1.06-1.06,2.12-2.12,3.18-3.17l-0.21,0.24    c3.01-3.01,6.01-6.01,9.02-9.02l-0.22,0.21c2.03-2.03,4.06-4.06,6.09-6.09c0,0-0.22,0.2-0.22,0.2    c10.86-1.99,15.55-12.2,23.71-17.79c0,0-0.23,0.18-0.23,0.18c6.43-2.81,12.98-5.38,19.26-8.49c11.66-5.77,23.21-11.69,36.54-12.56    c4.25,2.67,8.58,7.67,12.72,7.52c7.87-0.29,15.64-3.52,23.41-5.66c0.22-0.06,0.03-1.64,0.03-3.23    c-6.32-0.93-12.81-1.88-19.29-2.83c5.1-0.69,10.21-1.38,15.31-2.08c1.09-0.06,2.18-0.12,3.27-0.18c8.63,0,17.27,0,25.9,0    c0.19-0.75,0.39-1.5,0.58-2.24c-2.03-1.1-4.06-2.2-6.09-3.3c0.95-1.46,2.45-4.3,2.77-4.17c7.58,3.01,10-1.85,11.98-7.52    c11.94,2.01,24.07,3.25,35.75,6.26c11.07,2.85,21.65,7.56,32.45,11.45c0,0,0.02-0.55,0.02-0.55c2.54,7.37,6.94,12.86,14.89,14.78    c0,0-0.62,0.24-0.62,0.24c1.12,1.02,2.24,2.04,3.37,3.05c0,0-0.17-0.37-0.17-0.37c5.21,12.69,17.4,16.9,28.44,20.36    c19.06,5.97,33.25,17.05,45.46,32.39c15.81,19.86,29.08,41.33,30.28,66.74c1.4,29.54-0.56,59.29-2.06,88.89    c-0.65,12.98-3.77,25.83-5.76,38.75c-1.56,0.62-3.12,1.24-4.68,1.84c-4.17-5.17-5.31-0.61-6.73,2.19    c-6.3,12.44-12.49,24.93-18.73,37.4c-2.79,0.65-6,0.64-8.3,2.07c-12.53,7.84-21.77,18.73-28.38,31.91    c-3.84,1.14-7.68,2.28-14.15,4.19c5.52,2.18,8.16,3.22,11.26,4.45c-3.86,3.62-6.89,6.47-9.87,9.26c-3.11-2.79-5.52-4.97-7.28-6.54    c-4.6,3.04-9.04,4.86-11.86,8.09c-5.85,6.69-16.82,7.93-19.11,18.43c-0.4,1.82-2.95,3.65-4.92,4.58    c-8.99,4.23-16.4,10.72-26.4,14.09c-10.31,3.48-17.18,4.69-24.65-5.85c-7.99,4.59-15.69,9.02-24.32,13.97    c-1.96-1.7-4.72-4.11-7.43-6.46c-3.28,2.83-6.15,5.31-9.01,7.78c-10.25-6.07-21.02-6.25-32.11-2.85    c-2.92-1.07-5.83-2.14-8.75-3.21c-1.99,0.05-3.99,0.09-5.98,0.14c-2.95-4.82-6.15-8.66-11.77-3c-3.9-0.99-7.8-1.97-11.7-2.96    c-0.6-4.33,1.96-10.4-5.27-11.3c-6.39-0.79-6.46,4.04-6.52,8.52c-3.51-0.18-7.01-0.36-10.52-0.53c0,0-0.85-0.46-0.85-0.46    c-2.03-1.67-4.07-3.34-6.1-5.01c0,0-0.14-0.11-0.14-0.11c-2.02-4.73-2.97-10.48-6.32-13.92c-4.29-4.41-8.34-12.85-17.21-6.68    c-0.99,0.08-1.98,0.16-2.98,0.24c0,0,0.05,0.03,0.05,0.03c-1.02-0.98-2.03-1.97-3.05-2.95c0,0,0.07,0.07,0.07,0.07    c-1.01-1-2.02-1.99-3.03-2.99c0,0,0.07,0.07,0.07,0.07c-1-1-2.01-2-3.01-3c0,0,0.07,0.07,0.07,0.07c-1-1-2-2-3.01-3.01    c0,0,0.07,0.07,0.07,0.07c-1-1-2-2.01-3-3.01c0,0,0.07,0.07,0.07,0.07c-0.99-1.01-1.99-2.02-2.98-3.02c0,0,0.04,0.05,0.04,0.05    C126.62,423.84,121.93,417.88,114.32,414.28z M181.64,155.99c1-1,2-2,3-3.01l-0.06,0.06c1-1,2-2,2.99-2.99l0.08,0.13    c1.44-0.08,3.19,0.35,4.27-0.31c22.42-13.62,45.97-24.09,72.39-27.17c4.97-0.58,3.7-4.6,2.45-7.9    c11.72-0.11,23.44-0.22,35.15-0.32c8.74,1.18,17.48,2.36,26.23,3.53c2.9,1.04,5.8,2.07,8.71,3.11c4.89,1.94,9.78,3.88,14.68,5.82    c2.84,1.08,5.68,2.15,8.53,3.21c2.12,0.79,4.25,1.57,6.38,2.34c0.98,0.98,1.95,1.95,2.93,2.93c6.87,4.92,13.75,9.84,20.62,14.77    c0.77,0.31,1.58,0.48,2.42,0.48c3.09,2.74,6.18,5.49,9.28,8.22c0.98,0.98,1.95,1.95,2.93,2.93c0.87,1.08,1.75,2.15,2.62,3.23    c0.94,1.02,1.87,2.04,2.81,3.06c2.9,2.95,5.8,5.9,8.72,8.83c1.12,1.97,2.24,3.93,3.36,5.9c1.34,1.6,2.68,3.19,4.02,4.79    c0.62-0.58,1.24-1.15,1.85-1.73c-1.86-2.27-3.73-4.54-5.59-6.81c-0.93-0.96-1.87-1.92-2.8-2.87c-2.82-3.06-5.65-6.13-8.48-9.18    c-1.02-0.94-2.05-1.87-3.09-2.79c-1.09-0.86-2.18-1.72-3.29-2.56c-0.97-0.98-1.94-1.97-2.91-2.95c-0.37-5.42-3.8-7.9-8.66-9    c-1.02-0.99-2.05-1.97-3.07-2.96c-5.71-5.88-11.58-11.47-20.56-11.54c-0.97-0.98-1.95-1.96-2.92-2.94c-1.85-1.1-3.7-2.2-5.55-3.3    c-2.85-1.1-5.71-2.19-8.56-3.29c-4.98-1.81-9.96-3.62-14.95-5.42c-3-0.94-5.99-1.88-8.99-2.82c-8.89-1.84-17.77-3.68-26.66-5.52    c-14.6,0.03-29.2,0.06-43.81,0.1c-5.21,0.91-10.58,1.33-15.62,2.83c-20.88,6.21-41.67,12.72-58.21,28.02    c-0.93,1.37-1.87,2.74-2.8,4.11l0.08-0.04c-3.38,1.98-6.76,3.96-10.13,5.95c-9.36,3.53-14.45,11.29-19.24,19.36    c-1,2.36-2.01,4.73-3.01,7.09l0.11-0.13c-1.01,1.01-2.02,2.02-3.03,3.03l0.08-0.09c-1.01,1.01-2.02,2.02-3.03,3.02l0.07-0.09    c-1,1.99-2,3.98-3,5.98l0.09-0.11c-1.01,1.01-2.02,2.02-3.03,3.03c0,0,0.07-0.09,0.07-0.09c-1,2-2.01,3.99-3.01,5.99    c0,0,0.06-0.12,0.06-0.12c-1.98,3.93-3.96,7.86-5.93,11.79l0.07-0.05c-1,2-2.01,3.99-3.01,5.99l0.08-0.13    c-1,2.98-2,5.96-3.01,8.94l0.07-0.1c-8.86,11.25-9.64,24.89-11.33,38.27c-0.15,9.22-0.62,18.45-0.3,27.66    c0.16,4.54,1.78,9.03,2.75,13.54c0.48,0.41,0.96,0.82,1.44,1.23c-0.4-0.49-0.8-0.97-1.21-1.46c0.06-13.63,0.12-27.27,0.18-40.9    c2.86-10.78,5.72-21.56,8.59-32.34c1.08-0.01,2.15-0.02,3.23-0.03c0.24,1.2,0.48,2.4,0.73,3.6c0.66-1.19,1.33-2.38,1.99-3.57    c0,0-0.11,0.08-0.11,0.08c1.01-2.98,2.01-5.95,3.02-8.93l-0.05,0.1c3.3-2.03,3.68-4.03-0.07-5.98c-0.01-1.97-0.03-3.95-0.04-5.92    c1.17-2.83,2.35-5.66,3.52-8.5c1.33,2.89,2.65,5.78,3.78,8.25c10.69-19.08,24.87-35.73,39.73-51.86c1.01-1.2,2.01-2.39,3.02-3.59    L181.64,155.99z M381.32,426.05c2.03-0.88,4.06-1.77,6.1-2.65c2.07-1.89,4.14-3.77,6.21-5.66c3.79-3.05,7.58-6.11,11.36-9.16    c0.97-0.97,1.94-1.93,2.91-2.9c3.08-3.75,6.15-7.51,9.22-11.28c1.9-2.07,3.8-4.14,5.69-6.21c1.12-1.84,2.25-3.68,3.37-5.52    c1.69-3.15,3.37-6.31,5.05-9.47c0.97-0.98,1.95-1.96,2.92-2.94c3.04-5.8,6.07-11.6,9.1-17.4c1.99-5.81,3.97-11.61,5.96-17.42    c12.17-25.4,10.94-51.66,5.84-78.2c-1.69,1.09-2.43,2.32-2.44,3.55c-0.15,15.01,0.28,30.03-0.42,45.01    c-0.45,9.68-2.51,19.28-3.85,28.91c-2.07,5.75-4.13,11.5-6.2,17.25c-2.73,6.04-5.45,12.09-8.16,18.15    c-0.98,0.97-1.96,1.94-2.95,2.91c-2.05,2.87-4.1,5.74-6.14,8.61c-1.09,1.85-2.18,3.7-3.27,5.55c-1.84,2.05-3.68,4.09-5.53,6.14    c-3.03,3.82-6.07,7.63-9.08,11.47c-0.98,0.97-1.96,1.94-2.94,2.9c-3.83,3.02-7.66,6.03-11.49,9.06c-2.05,1.83-4.1,3.66-6.13,5.51    c-1.77,1.2-3.54,2.41-5.3,3.62c-0.98,0.97-1.97,1.94-2.95,2.91c-3.91,1.96-7.82,3.93-11.72,5.91c-0.98,0.97-1.97,1.94-2.95,2.91    c-3.01,0.88-6.02,1.76-9.03,2.63c-17.57,4.84-35.14,9.69-52.7,14.53c-10.69,0.08-21.37,0.16-32.06,0.25c-2-0.75-4-1.51-6.01-2.26    c-5.18,0-10.36,0-15.54,0c0,0.92-0.01,1.84-0.01,2.76c5.2,0,10.41,0,15.61,0c1.98,0.78,3.95,1.56,5.93,2.34    c10.74-0.15,21.47-0.29,32.21-0.44c18.83-2.04,37.44-4.83,53.54-16.02c2.75-1.21,5.5-2.43,8.23-3.65    c0.98-0.97,1.97-1.94,2.95-2.91c5.23,0.66,9.29-1.01,11.74-5.89C379.35,427.99,380.34,427.02,381.32,426.05z M437.9,205.04    c-1.06-1.9-2.11-3.8-3.17-5.7c-1.15-2.62-2.29-5.23-3.44-7.85c-0.9,0.5-1.8,0.99-2.7,1.49c1.66,2.46,3.32,4.92,4.98,7.38    c0.98,1.94,1.97,3.88,2.95,5.82c0.99,1.95,1.98,3.9,2.96,5.85c3.78,12.04,7.55,24.08,11.33,36.12c1.06-0.35,2.11-0.7,3.17-1.05    c-1.46-12.97-4.67-25.39-13.22-36.13C439.82,208.98,438.87,207,437.9,205.04z M305.74,166.86c-0.92-2.01-1.84-4.03-2.76-6.04    c-1.1-1.85-2.2-3.71-3.3-5.56c-0.83-1.16-1.65-2.33-2.48-3.49c-2.58-3.82-5.17-7.63-7.79-11.51    c-10.08,7.54-10.47,7.43-13.95,19.57c-6.83,23.8-13.17,47.74-20.02,72.7c-4.78,0-9.59,0-14.41,0c-19.09,0-22-2.07-28.2-20.5    c-1.81-5.38-3.35-10.86-5.01-16.29c-1.04-0.2-2.09-0.41-3.13-0.61c-4.76,9.93-9.37,19.94-14.35,29.76    c-2.96,5.83-3.03,10.8,1.23,16.21c4.52,5.74,8.03,12.27,12.33,18.19c5.2,7.15,6.23,14.17,0.48,21.43    c-7.87,9.95-15.42,20.17-23.75,29.72c-8.12,9.31-18.65,13.86-31.3,12.96c-3.61-0.26-7.28,0.26-11.3,0.45    c13.02,33.37,55.17,39.71,77.57,12.28c12.26-15.01,19.4-32.38,17.73-52.33c17.72-2.3,18.43-1.8,21.19,14.83    c0.24,1.44,0.13,2.96,0.48,4.37c5.92,23.56,22.37,43.02,49.93,43.8c12.45,0.35,21.87-4.83,27.1-16.25    c2.4-5.25,4.2-10.95,5.21-16.63c1.76-9.97,2.7-20.09,4.05-30.63c3.46-0.21,6.3-0.41,9.15-0.54c8.73-0.39,17.61,0.14,26.14-1.34    c11.41-1.98,21.97-7.28,26.71-18.44c9.65-22.75,11.18-46.21,2.68-69.85c-0.97-2.97-1.94-5.94-2.92-8.91    c-2.02-9.13-5.15-17.55-14.96-22.93c-5.53,8.53-11.47,16.31-15.73,24.91c-1.8,3.65-1.11,9.37,0.26,13.56    c2.56,7.83,6.68,15.15,9.67,22.86c1.28,3.32,1.36,7.1,2.37,12.82c-11.54,0-21.24,0.05-30.94-0.01    c-10.09-0.07-20.19-0.26-30.37-0.4c-1.47-9.9-2.43-18.1-3.95-26.2c-2.31-12.33-2.65-25.31-11.08-35.76    C307.47,170.99,306.61,168.93,305.74,166.86z M151.64,394.35c0.97,0.96,1.94,1.92,2.9,2.87c3.38,8.39,9.38,14.16,17.63,17.69    c8.89,12.12,21.02,19.36,35.27,23.43c11.96,9.15,22.45,12.82,33.82,10.38c-12.33-4.32-22.57-7.91-32.81-11.5    c-11.77-7.81-23.53-15.62-35.3-23.43c-5.87-5.86-11.74-11.73-17.61-17.58c-0.87-1.05-1.74-2.1-2.62-3.15    c-1.92-2.06-3.85-4.11-5.77-6.17c-1.97-2.91-3.93-5.83-5.9-8.74c-2.06-3.79-4.12-7.59-6.19-11.37c-0.59-0.66-1.18-1.32-1.78-1.98    c0.2,1.05,0.4,2.1,0.6,3.16c2.05,3.83,4.09,7.65,6.15,11.48c2,2.9,4.01,5.8,6.01,8.69C147.9,390.2,149.76,392.28,151.64,394.35z     M367.28,310.69c-21.02,19.93-21.37,25.56-3.97,45.46c1.25,1.43,2.81,2.61,4.25,3.93c6.08-7.25,11.9-14.19,18.43-21.98    c6.26,6.79,11.33,12.31,17.52,19.02c7.28-8.02,13.68-15.08,20.6-22.72c-5.96-7.52-10.86-14.12-16.21-20.32    c-4.02-4.65-8.44-4.49-12.08,0.74c-3.27,4.69-6.36,9.52-10.2,15.3C379.03,323.15,373.46,317.25,367.28,310.69z M408.99,376.17    c-7.8-8.7-14.13-15.75-21.34-23.8c-5.9,7.98-11.01,14.88-16.8,22.71c6.66,7.89,12.74,15.09,19.74,23.38    C397.31,390.3,402.78,383.69,408.99,376.17z M128.73,352.92c-3.24-10.03-6.45-20.08-9.8-30.07c-0.21-0.62-1.54-0.87-2.35-1.29    C116.78,335.91,119.3,343.57,128.73,352.92z M130.15,360.77c0.27-0.27,0.72-0.52,0.75-0.81c0.03-0.29-0.38-0.62-0.59-0.93    c-0.27,0.27-0.72,0.52-0.75,0.81C129.52,360.12,129.93,360.45,130.15,360.77z"/>
		<path class="st1" d="M373.18,84.93c-10.8-3.89-21.39-8.6-32.45-11.45c-11.68-3.01-23.81-4.25-35.75-6.26    c-3.26-0.66-6.5-1.7-9.79-1.92c-25.57-1.71-50.45,2.62-75.1,8.83c-8.92,3.69-17.84,7.39-26.77,11.09    c-0.99,1.01-1.99,2.02-2.98,3.03c-0.98,0.08-1.95,0.16-2.93,0.24c-21.09,10.5-40.64,23.28-57.99,39.28    c-1.39,1.28-2.91,2.94-3.34,4.68c-1.67,6.87-7.21,10.71-11.74,15.11c-19.08,18.54-28.04,42.34-35.61,66.93    c-0.79,0.37-1.6,0.67-2.43,0.92c-0.33-1.68-0.65-3.35-0.98-5.02c7.36-32.83,24.27-60.64,47.82-83.81    c64.98-63.92,142.33-79.69,228.98-55.97C360.58,72.94,368.44,76.81,373.18,84.93z"/>
		<path class="st2" d="M487.04,349.21c2-12.91,5.11-25.76,5.76-38.74c1.49-29.61,3.45-59.35,2.06-88.89    c-1.2-25.41-14.48-46.88-30.28-66.74c-12.21-15.35-26.39-26.42-45.46-32.39c-11.04-3.46-23.23-7.67-28.44-20.36    c15.69,8.62,30.78,18.47,48.66,22.43c2.69,0.6,5.32,2.57,7.43,4.5c38.47,35.22,60.12,77.22,53.21,131    c-1.17,9.14-0.48,18.52-0.57,27.79c-0.19,21.07-2.96,41.72-9.68,61.76c-0.94-0.02-1.87,0.12-2.77,0.42L487.04,349.21z"/>
		<path class="st3" d="M73.16,249.89c5.11,12.09,9.85,24.35,15.45,36.21c4.31,9.14,5.56,18.51,5.29,28.4    c-0.33,11.69-0.13,23.4-0.4,35.1c-0.34,14.86,1.99,29.03,9.21,42.27c1.58,2.89,2.01,6.39,2.97,9.62    c-10.65-12.62-17.18-26.64-15.92-43.7c0.68-9.17,0.21-18.43,0.83-27.61c1.32-19.78-1.84-38.44-11.23-56.17    c-4.01-7.58-6.18-16.14-9.18-24.26C71.17,249.79,72.16,249.84,73.16,249.89z"/>
		<path class="st4" d="M482.37,351.08c1.56-0.62,3.12-1.24,4.67-1.86c0-0.01-0.07,0.76-0.07,0.76c-0.28,0.95-0.16,1.86,0.34,2.72    c-3.25,18.19-14.01,32.83-23.58,47.78c-12.3,19.23-26.7,36.96-44.42,51.69c-0.94-0.92-1.88-1.84-2.82-2.75c0.95-2,1.9-4,2.85-6.01    c0,0-0.12,0.12-0.12,0.12c1.02-1.02,2.03-2.03,3.05-3.05c0,0-0.12,0.12-0.12,0.12c1.02-1.02,2.03-2.03,3.05-3.05l-0.12,0.15    c3.4-0.78,6.29-1.82,3-5.96l0,0c8.08-0.7,9.94-2.56,14.7-14.73l-0.08,0.09c5.99-1.67,8.72-5.77,8.86-11.82l-0.05,0.07    c0.91-0.1,2.29,0.16,2.66-0.34C466.41,388.51,477.58,371.46,482.37,351.08z"/>
		<path class="st5" d="M416.5,449.41c0.94,0.92,1.88,1.83,2.82,2.75c-25.02,22.26-53.83,38.04-85.03,49.75    c-0.01-1.91-0.02-3.82-0.03-5.73c2-0.93,4.01-1.86,6.01-2.79c0,0-0.27,0.18-0.27,0.18c5.94-3.01,11.87-6.01,17.81-9.02l-0.2,0.14    C379.86,477.3,398.98,464.69,416.5,449.41z"/>
		<path class="st6" d="M202.18,478.75c3.9,0.99,7.8,1.97,11.7,2.96c4.15,0.12,6.01,9.2,11.77,3c1.99-0.05,3.99-0.09,5.98-0.14    c0.06,4.83,0.13,9.67,0.19,14.5c-5.7-1.07-11.39-2.13-17.09-3.2c-12.9-4.62-25.4-9.92-34.86-20.43c3.5,0.18,7.01,0.36,10.51,0.53    C192.36,485.22,197.57,480.72,202.18,478.75z"/>
		<path class="st4" d="M214.74,495.87c5.7,1.07,11.39,2.13,17.09,3.2c2.8,0.97,5.6,1.93,8.41,2.89c28.28,8.56,56.6,10.04,84.96,0.37    l0.77,0.37l0.78-0.35c-4.8,2.77-9.41,7.53-14.42,8C278.71,513.49,245.72,511.1,214.74,495.87z"/>
		<path class="st7" d="M149.26,449.27c8.88-6.17,12.92,2.26,17.21,6.68c3.34,3.44,4.3,9.2,6.32,13.92    c-7.81-5.82-15.62-11.64-23.43-17.46C149.33,451.36,149.3,450.31,149.26,449.27z"/>
		<path class="st8" d="M114.32,414.28c7.6,3.6,12.3,9.56,14.34,17.67C123.88,426.06,119.1,420.17,114.32,414.28z"/>
		<path class="st8" d="M388.1,99.16c-7.95-1.91-12.35-7.41-14.89-14.78C378.17,89.3,383.13,94.23,388.1,99.16z"/>
		<path class="st9" d="M326.74,502.35l-0.78,0.35c0,0-0.77-0.37-0.77-0.37c0.09-2.96,0.18-5.92,0.27-8.88c0,0-0.04,0.03-0.04,0.03    c1.96-0.09,3.91-0.18,5.87-0.27c1.03,0.17,2.06,0.35,3.09,0.52c-0.09,0.81-0.13,1.63-0.13,2.45c0.01,1.91,0.02,3.82,0.03,5.73    C331.77,502.06,329.26,502.2,326.74,502.35z"/>
		<path class="st1" d="M73.16,249.89c-0.99-0.05-1.99-0.1-2.98-0.15c-0.18-1.58-0.35-3.17-0.53-4.75c0-1.65,0-3.3,0-4.96    c0.13-2.59,0.26-5.19,0.4-7.78c1.08-0.11,2.16-0.22,3.24-0.33C73.24,237.9,73.2,243.9,73.16,249.89z"/>
		<path class="st3" d="M73.28,231.91c-1.08,0.11-2.16,0.22-3.24,0.33c0.76-3.35,1.52-6.69,2.28-10.04c0.29,2.59,0.58,5.17,0.87,7.76    C73.39,230.61,73.42,231.26,73.28,231.91z"/>
		<path class="st1" d="M73.19,229.96c-0.29-2.59-0.58-5.17-0.87-7.76c0.24-1.55,0.48-3.1,0.73-4.66c1.08-0.1,2.16-0.2,3.24-0.3    C75.26,221.49,74.22,225.72,73.19,229.96z"/>
		<path class="st7" d="M172.93,469.97c2.03,1.67,4.07,3.34,6.1,5.01C177,473.31,174.96,471.64,172.93,469.97z"/>
		<path class="st3" d="M76.29,217.25c-1.08,0.1-2.16,0.2-3.24,0.3c0.76-2.39,1.52-4.77,2.28-7.16c0.33,1.67,0.65,3.35,0.98,5.02    C76.42,216.03,76.42,216.64,76.29,217.25z"/>
		<path class="st8" d="M128.62,431.9c0.99,1.01,1.99,2.02,2.98,3.02C130.6,433.92,129.61,432.91,128.62,431.9z"/>
		<path class="st8" d="M131.53,434.86c1,1,2,2.01,3,3.01C133.53,436.86,132.53,435.86,131.53,434.86z"/>
		<path class="st8" d="M134.46,437.8c1,1,2,2,3.01,3.01C136.47,439.8,135.46,438.8,134.46,437.8z"/>
		<path class="st8" d="M137.4,440.73c1,1,2.01,2,3.01,3C139.41,442.73,138.4,441.73,137.4,440.73z"/>
		<path class="st8" d="M140.34,443.66c1.01,1,2.02,1.99,3.03,2.99C142.35,445.66,141.35,444.66,140.34,443.66z"/>
		<path class="st8" d="M143.29,446.58c1.01,0.98,2.03,1.97,3.05,2.95C145.32,448.55,144.31,447.57,143.29,446.58z"/>
		<path class="st8" d="M149.26,449.27c0.03,1.05,0.07,2.09,0.1,3.14c-1.03-0.97-2.05-1.94-3.08-2.9    C147.28,449.42,148.27,449.35,149.26,449.27z"/>
		<path class="st10" d="M487.31,352.7c-0.5-0.86-0.62-1.77-0.34-2.72c0.9-0.3,1.82-0.43,2.77-0.42    C488.93,350.61,488.12,351.65,487.31,352.7z"/>
		<path class="st3" d="M69.64,240.03c0,1.65,0,3.3,0,4.96C69.65,243.34,69.64,241.68,69.64,240.03z"/>
		<path class="st2" d="M390.85,102.46c-1.12-1.02-2.24-2.03-3.37-3.05C388.6,100.42,389.73,101.44,390.85,102.46z"/>
		<path class="st11" d="M308.34,173.06c8.42,10.45,8.76,23.44,11.07,35.76c1.52,8.1,2.48,16.3,3.95,26.2    c10.18,0.14,20.27,0.33,30.37,0.4c9.7,0.07,19.4,0.01,30.94,0.01c-1-5.72-1.08-9.5-2.37-12.82c-2.99-7.72-7.11-15.03-9.67-22.86    c-1.37-4.19-2.07-9.92-0.26-13.56c4.26-8.6,10.2-16.38,15.73-24.91c9.81,5.38,12.94,13.79,14.96,22.93    c-0.97,0.76-1.93,1.53-2.9,2.29c-1.6-2-3.19-4-4.79-6c5.72,20.56,6.3,40.86,4,64.2c7.53-17.99,6.41-33.72,3.78-49.54    c0.95-0.68,1.89-1.37,2.84-2.05c8.49,23.65,6.96,47.11-2.69,69.86c-4.74,11.16-15.3,16.47-26.71,18.44    c-8.54,1.48-17.42,0.95-26.14,1.34c-2.85,0.13-5.69,0.33-9.15,0.54c-1.35,10.54-2.29,20.66-4.05,30.63    c-1,5.68-2.8,11.38-5.21,16.63c-5.23,11.41-14.65,16.6-27.1,16.25c-27.55-0.78-44-20.24-49.93-43.8    c-0.35-1.41-0.24-2.92-0.48-4.37c-2.76-16.63-3.47-17.13-21.19-14.83c1.67,19.95-5.47,37.31-17.73,52.33    c-22.4,27.43-64.55,21.1-77.57-12.28c4.01-0.18,7.68-0.7,11.3-0.45c12.65,0.9,23.18-3.65,31.3-12.96    c8.33-9.55,15.88-19.77,23.75-29.72c5.74-7.26,4.71-14.28-0.48-21.43c-4.3-5.93-7.81-12.45-12.33-18.19    c-4.26-5.4-4.19-10.38-1.23-16.21c4.99-9.82,9.59-19.83,14.35-29.76c1.04,0.2,2.09,0.41,3.13,0.61c1.66,5.43,3.2,10.9,5.01,16.29    c6.2,18.43,9.1,20.5,28.2,20.5c4.82,0,9.63,0,14.41,0c6.84-24.97,13.19-48.9,20.02-72.7c3.48-12.14,3.87-12.03,13.95-19.57    c2.62,3.87,5.21,7.69,7.79,11.51c-0.49,0.52-0.97,1.05-1.44,1.59c-4.91,0.21-3.86,3.13-2.5,5.86c3.84,7.71,7.82,15.36,11.74,23.03    c0.19,2.26,0.37,4.52,0.56,6.78c0.63-0.02,1.27-0.05,1.9-0.07c0-2.25,0-4.49,0-6.74c0.05-2.86,0.1-5.72,0.15-8.59L308.34,173.06z     M315.64,305.86c-6.13-22.36-20.76-29.22-36.11-20.01C293.1,303.4,303.17,308.98,315.64,305.86z M276,231.85    c8.15,0.62,15.08,1.15,22.89,1.74c-1-12.36-6.28-21.15-14.88-31.01C281.03,213.46,278.68,222.06,276,231.85z M190.58,335.86    c17.51-4.97,32.46-28.16,29.77-46.84c-4.4,9.39-7.42,17.93-12.16,25.37C203.43,321.85,196.96,328.22,190.58,335.86z"/>
		<path class="st12" d="M190.34,88.26c0.99-1.01,1.99-2.02,2.98-3.03c3.85,2.76,7.71,5.51,11.56,8.26    c-8.72,4.66-17.49,9.24-26.08,14.11c-0.68,0.38-0.18,2.85-0.22,4.35c0,0,0.23-0.18,0.23-0.18c-11.46,0.41-21.12,7.66-23.71,17.79    c0,0,0.22-0.2,0.22-0.2c-5.36-1.01-7.33,0.96-6.09,6.09c0,0,0.22-0.21,0.22-0.21c-6.53-0.71-9.73,2.49-9.02,9.02    c0,0,0.21-0.24,0.21-0.24c-1.11-0.06-2.22-0.11-3.32-0.17c0.05,1.11,0.1,2.23,0.14,3.34c0,0,0.24-0.21,0.24-0.21    c-7.25-1.5-9.62,4.53-12.18,8.84c-9.91,16.61-19.25,33.55-28.81,50.37c-3.48-5.14-6.05-1.42-8.82,0.88    c-3.02,2.51-6.1,4.95-9.16,7.42c7.57-24.59,16.53-48.39,35.61-66.93c4.53-4.4,10.07-8.24,11.74-15.11    c0.42-1.74,1.94-3.4,3.34-4.68c17.36-16,36.91-28.78,57.99-39.28C188.39,88.42,189.37,88.34,190.34,88.26z"/>
		<path class="st13" d="M334.39,493.73c-1.03-0.17-2.06-0.35-3.09-0.52c-2.09-2.87-4.06-2.92-5.87,0.27c0,0,0.04-0.03,0.04-0.03    c-3.9-0.95-7.81-1.9-11.71-2.85c-1.68-7.61-5.83-6.46-12.86-0.77c2.39,1.28,4.78,2.57,7.17,3.85c-3.25,8.38-11.04,4.79-14.73,3.12    c-7.12-3.22-12.87-4.2-19.62,2.78c-0.59-4.35-0.91-6.65-1.22-8.96c2.87-2.48,5.73-4.95,9.01-7.78c2.7,2.35,5.47,4.76,7.43,6.46    c8.63-4.96,16.34-9.38,24.32-13.97c7.47,10.54,14.34,9.33,24.65,5.85c10-3.38,17.4-9.87,26.4-14.09c1.98-0.93,4.53-2.75,4.92-4.58    c2.29-10.5,13.26-11.74,19.11-18.43c2.82-3.23,7.26-5.04,11.86-8.09c1.75,1.58,4.17,3.75,7.28,6.54c2.97-2.79,6.01-5.64,9.87-9.26    c-3.1-1.23-5.75-2.27-11.26-4.45c6.46-1.92,10.3-3.05,14.15-4.19c6.61-13.18,15.86-24.08,28.38-31.91c2.3-1.44,5.51-1.42,8.3-2.07    c-1.79,4.89-3.59,9.79-5.38,14.68c0,0,0.05-0.07,0.05-0.07c-6.96,0.94-9.76,4.99-8.86,11.82c0,0,0.08-0.09,0.08-0.09    c-8.7,1.12-11.38,8.25-14.7,14.73c0,0,0,0,0,0c-3.18,0.89-5.91,2.01-3.01,5.96c0,0,0.12-0.15,0.12-0.15    c-1.05-0.04-2.11-0.07-3.16-0.11c0.04,1.05,0.07,2.11,0.11,3.16c0,0,0.12-0.12,0.12-0.12c-1.05-0.04-2.11-0.07-3.16-0.11    c0.04,1.05,0.07,2.11,0.11,3.16c0,0,0.12-0.12,0.12-0.12c-1.14-0.25-2.87-1.12-3.35-0.66c-15.36,14.52-33.91,24.12-52.1,34.35    c-2.67,1.5-4.22,5.02-6.29,7.6c0,0,0.2-0.14,0.2-0.14c-6.13,2.13-12.27,4.24-18.36,6.48c-0.11,0.04,0.35,1.66,0.55,2.54    c0,0,0.27-0.18,0.27-0.18C338.31,493.5,336.35,493.62,334.39,493.73z"/>
		<path class="st14" d="M367.28,310.69c6.18,6.55,11.74,12.45,18.34,19.45c3.84-5.78,6.92-10.61,10.2-15.3    c3.64-5.23,8.06-5.39,12.08-0.74c5.36,6.19,10.25,12.79,16.21,20.32c-6.92,7.64-13.33,14.7-20.6,22.72    c-6.18-6.71-11.26-12.23-17.52-19.02c-6.53,7.79-12.35,14.72-18.43,21.98c-1.44-1.32-3-2.49-4.25-3.93    C345.92,336.26,346.27,330.62,367.28,310.69z"/>
		<path class="st6" d="M313.76,490.6c3.9,0.95,7.81,1.9,11.71,2.85c-0.09,2.96-0.18,5.92-0.27,8.88    c-28.36,9.67-56.67,8.19-84.96-0.37c0.05-4.73,0.1-9.46,0.15-14.19c11.09-3.4,21.86-3.22,32.11,2.85    c0.31,2.31,0.63,4.61,1.22,8.96c6.76-6.98,12.5-5.99,19.62-2.78c3.69,1.67,11.48,5.26,14.73-3.13    C309.96,492.65,311.86,491.63,313.76,490.6z"/>
		<path class="st15" d="M220.09,74.14c24.65-6.22,49.53-10.54,75.1-8.84c3.29,0.22,6.53,1.27,9.79,1.92    c-1.98,5.67-4.4,10.53-11.98,7.51c-0.32-0.13-1.82,2.71-2.77,4.17c-16.85,1.18-33.71,2.19-50.54,3.61    c-5.68,0.48-11.26,1.98-16.89,3.01C221.9,81.74,220.99,77.94,220.09,74.14z"/>
		<path class="st16" d="M184.32,142.88c16.54-15.28,37.33-21.8,58.21-28c5.04-1.5,10.4-1.91,15.62-2.83    c2.88,0.92,5.75,1.84,8.63,2.76c1.24,3.3,2.52,7.32-2.45,7.9c-26.42,3.07-49.96,13.54-72.39,27.17c-1.09,0.66-2.83,0.23-4.27,0.3    c-1.08-1.09-2.15-2.18-3.23-3.27C184.39,145.56,184.36,144.22,184.32,142.88z"/>
		<path class="st14" d="M408.99,376.17c-6.21,7.52-11.68,14.13-18.41,22.29c-6.99-8.28-13.08-15.49-19.74-23.38    c5.79-7.83,10.9-14.73,16.8-22.71C394.86,360.42,401.19,367.47,408.99,376.17z"/>
		<path class="st17" d="M222.8,85.54c5.63-1.03,11.22-2.53,16.89-3.01c16.83-1.42,33.69-2.44,50.54-3.61c2.03,1.1,4.06,2.2,6.09,3.3    c-0.19,0.75-0.39,1.5-0.58,2.24c-8.63,0-17.27,0-25.9,0c-1.09,0.06-2.18,0.12-3.27,0.18c-5.1,0.69-10.21,1.38-15.29,2.08    c-5.62,1.4-11.26,2.8-16.9,4.19c-13.32,0.86-24.88,6.78-36.54,12.56c-6.28,3.11-12.83,5.68-19.26,8.49    c0.05-1.5-0.46-3.96,0.22-4.35c8.6-4.88,17.36-9.46,26.08-14.11C210.86,90.84,216.83,88.19,222.8,85.54z"/>
		<path class="st18" d="M184.43,146.9c1.07,1.09,2.15,2.18,3.23,3.27c0,0-0.07-0.12-0.07-0.12c-1,1-2,2-2.99,2.99    c0,0,0.06-0.06,0.06-0.06c-1,1-2,2-3,3.01c0,0,0.07-0.09,0.07-0.09c-1.01,1.2-2.01,2.39-3.02,3.58    c-14.86,16.13-29.04,32.78-39.73,51.86c-1.13-2.46-2.46-5.35-3.79-8.25c-0.2-1.1-0.4-2.2-0.6-3.3c0,0-0.06,0.12-0.06,0.12    c1-2,2.01-3.99,3.01-5.99c0,0-0.07,0.09-0.07,0.09c1.01-1.01,2.02-2.02,3.03-3.02c0,0-0.09,0.11-0.09,0.11c1-1.99,2-3.98,3-5.98    c0,0-0.07,0.09-0.07,0.09c1.01-1.01,2.02-2.02,3.03-3.02c0,0-0.08,0.09-0.08,0.09c1.01-1.01,2.02-2.02,3.03-3.03    c0,0-0.11,0.13-0.11,0.13c1-2.37,2.01-4.73,3.01-7.09c4.79-8.07,9.88-15.84,19.25-19.37c3.38-1.98,6.75-3.96,10.12-5.95    l-0.08,0.04l1.46,0.08L184.43,146.9z"/>
		<path class="st17" d="M96.72,206.2c9.55-16.82,18.89-33.77,28.81-50.37c2.57-4.3,4.94-10.34,12.18-8.84    c-4.9,7.54-9.69,15.15-14.72,22.61c-10.89,16.13-19.44,33.35-25.04,52.02c-0.73,2.42-1.9,4.71-2.86,7.06    c-1.03-0.31-2.06-0.62-3.09-0.93C93.57,220.56,95.14,213.38,96.72,206.2z"/>
		<path class="st10" d="M451.53,405.33c1.79-4.89,3.59-9.79,5.38-14.68c6.23-12.47,12.43-24.96,18.73-37.4    c1.42-2.81,2.56-7.36,6.73-2.19c-4.78,20.4-15.96,37.45-28.18,53.93C453.81,405.49,452.43,405.24,451.53,405.33z"/>
		<path class="st19" d="M448.34,334.7c1.34-9.63,3.4-19.23,3.85-28.91c0.7-14.98,0.27-30,0.42-45.01c0.01-1.23,0.75-2.46,2.44-3.55    c5.1,26.55,6.33,52.8-5.84,78.2C449.21,335.44,448.34,334.7,448.34,334.7z"/>
		<path class="st12" d="M234.38,90.9c5.64-1.4,11.28-2.79,16.9-4.19c6.46,0.95,12.94,1.9,19.27,2.82c0,1.59,0.2,3.17-0.03,3.23    c-7.77,2.14-15.54,5.37-23.41,5.66C242.96,98.58,238.63,93.58,234.38,90.9z"/>
		<path class="st20" d="M301.79,454.77c17.57-4.84,35.14-9.69,52.7-14.53c0.33,0.39,0.65,0.79,0.97,1.19    c-16.11,11.17-34.72,13.96-53.55,16C301.91,456.54,301.87,455.65,301.79,454.77z"/>
		<path class="st21" d="M207.43,438.36c-14.23-4.08-26.37-11.32-35.25-23.45c0.33-0.38,0.65-0.75,0.98-1.12    c11.77,7.81,23.53,15.62,35.3,23.43C208.11,437.6,207.77,437.98,207.43,438.36z"/>
		<path class="st21" d="M440.79,210.95c8.53,10.76,11.74,23.18,13.2,36.15c-1.06,0.35-2.11,0.7-3.17,1.05    c-3.78-12.04-7.55-24.08-11.33-36.12C439.92,211.66,440.35,211.3,440.79,210.95z"/>
		<path class="st20" d="M111.53,264.52c1.68-13.38,2.47-27.02,11.33-38.27c0.04,2,0.08,4,0.11,6c-2.86,10.78-5.72,21.56-8.59,32.34    C113.43,264.54,112.48,264.51,111.53,264.52z"/>
		<path class="st20" d="M128.73,352.92c-9.44-9.35-11.96-17.02-12.15-31.36c0.81,0.42,2.14,0.67,2.35,1.29    C122.28,332.85,125.49,342.89,128.73,352.92z"/>
		<path class="st21" d="M208.46,437.22c10.24,3.59,20.48,7.18,32.81,11.5c-11.37,2.45-21.86-1.23-33.83-10.37    C207.77,437.98,208.11,437.6,208.46,437.22z"/>
		<path class="st22" d="M202.18,478.75c-4.61,1.96-9.82,6.47-11.79-2.78c0.05-4.48,0.13-9.32,6.52-8.52    C204.14,468.35,201.58,474.42,202.18,478.75z"/>
		<path class="st17" d="M155.1,129.57c2.59-10.13,12.25-17.38,23.71-17.79C170.65,117.37,165.96,127.58,155.1,129.57z"/>
		<path class="st22" d="M240.38,487.78c-0.05,4.73-0.1,9.46-0.15,14.19c-2.8-0.97-5.61-1.93-8.41-2.9    c-0.06-4.83-0.13-9.67-0.19-14.5C234.55,485.64,237.47,486.71,240.38,487.78z"/>
		<path class="st23" d="M266.77,114.81c-2.88-0.92-5.76-1.84-8.63-2.76c14.6-0.03,29.21-0.06,43.81-0.1c0.01,0.84,0,1.69-0.02,2.53    C290.21,114.59,278.49,114.7,266.77,114.81z"/>
		<path class="st19" d="M111.53,264.52c0.95-0.01,1.9,0.01,2.85,0.06c-0.06,13.64-0.12,27.27-0.18,40.91l-0.23,0.23    c-0.96-4.51-2.59-9-2.75-13.55C110.91,282.97,111.38,273.74,111.53,264.52z"/>
		<path class="st21" d="M369.58,135.22c8.96,0.09,14.83,5.68,20.54,11.55c-0.04,1.14-0.08,2.28-0.12,3.41    c-6.87-4.92-13.75-9.84-20.62-14.77L369.58,135.22z"/>
		<path class="st19" d="M301.93,114.48c0.02-0.84,0.03-1.69,0.02-2.53c8.89,1.84,17.77,3.68,26.66,5.52c0,0-0.46,0.55-0.46,0.55    C319.41,116.84,310.67,115.66,301.93,114.48z"/>
		<path class="st19" d="M301.79,454.77c0.08,0.89,0.12,1.77,0.12,2.66c-10.74,0.14-21.47,0.29-32.21,0.43    c-0.01-0.95,0-1.9,0.02-2.85C280.41,454.93,291.1,454.85,301.79,454.77z"/>
		<path class="st21" d="M155.54,396.2c5.87,5.86,11.74,11.73,17.61,17.59c-0.32,0.37-0.65,0.74-0.97,1.12    c-8.26-3.52-14.26-9.29-17.64-17.68L155.54,396.2z"/>
		<path class="st18" d="M122.97,232.25c-0.04-2-0.07-4-0.11-6c0,0-0.07,0.1-0.07,0.1c1-2.98,2-5.96,3.01-8.94    c0,0-0.08,0.13-0.08,0.13c1-2,2.01-3.99,3.01-5.99c0,0-0.07,0.05-0.07,0.05c1,0,2.01,0,3.01,0c0.01,1.97,0.03,3.95,0.04,5.92    c0.02,1.99,0.05,3.99,0.07,5.98c0,0,0.05-0.1,0.05-0.1c-1.01,2.98-2.01,5.95-3.02,8.93c0,0,0.11-0.08,0.11-0.08    c-0.91,0.01-1.81,0-2.72-0.03C125.12,232.23,124.05,232.24,122.97,232.25z"/>
		<path class="st20" d="M433.97,370.09c2.73-6.04,5.45-12.09,8.19-18.13c0.01,0.01,1.1,0.9,1.1,0.9c-3.04,5.8-6.07,11.6-9.12,17.39    C434.13,370.25,433.97,370.09,433.97,370.09z"/>
		<path class="st22" d="M225.65,484.71c-5.76,6.2-7.62-2.88-11.77-3C219.51,476.04,222.7,479.89,225.65,484.71z"/>
		<path class="st20" d="M449.21,335.44c-1.99,5.81-3.97,11.61-5.96,17.42c0,0-1.08-0.89-1.09-0.9c2.06-5.76,4.12-11.51,6.18-17.26    C448.34,334.7,449.21,335.44,449.21,335.44z"/>
		<path class="st19" d="M393.21,149.73c4.86,1.1,8.29,3.58,8.65,9.01c-0.01,0.01-0.17,0.17-0.17,0.17    c-3.09-2.74-6.18-5.49-9.26-8.24C392.44,150.65,393.21,149.73,393.21,149.73z"/>
		<path class="st19" d="M418.76,176.96c-2.9-2.95-5.8-5.9-8.7-8.85c0.37-0.36,0.73-0.72,1.09-1.09c2.82,3.06,5.65,6.13,8.47,9.2    C419.62,176.22,418.76,176.96,418.76,176.96z"/>
		<path class="st21" d="M337.6,120.28c4.98,1.81,9.96,3.62,14.93,5.44c-0.33,0.42-0.66,0.82-1,1.22c-4.89-1.94-9.78-3.88-14.67-5.83    L337.6,120.28z"/>
		<path class="st20" d="M392.57,416.73c3.83-3.02,7.66-6.03,11.51-9.04c0.01,0.01,0.91,0.89,0.91,0.89    c-3.79,3.05-7.58,6.11-11.37,9.15C393.61,417.73,392.57,416.73,392.57,416.73z"/>
		<path class="st20" d="M366.46,434.68c3.91-1.97,7.82-3.93,11.74-5.89c0.01,0.01,0.18,0.18,0.18,0.18    c-2.46,4.87-6.52,6.54-11.75,5.88L366.46,434.68z"/>
		<path class="st23" d="M263.78,455.52c-5.2,0-10.41,0-15.61,0c0-0.92,0.01-1.84,0.01-2.76c5.18,0,10.36,0,15.54,0    C263.76,453.67,263.78,454.6,263.78,455.52z"/>
		<path class="st20" d="M406.99,404.76c3.03-3.82,6.07-7.63,9.1-11.45c0.36,0.36,0.7,0.73,1.03,1.11    c-3.08,3.75-6.15,7.51-9.23,11.26C407.89,405.68,406.99,404.76,406.99,404.76z"/>
		<path class="st20" d="M140.02,379.44c-2.05-3.83-4.09-7.65-6.14-11.48c0.4-0.39,0.8-0.78,1.18-1.19    c2.06,3.79,4.12,7.59,6.18,11.39C140.85,378.61,140.44,379.04,140.02,379.44z"/>
		<path class="st17" d="M140.43,144.27c-0.71-6.53,2.48-9.73,9.02-9.02C146.44,138.26,143.44,141.26,140.43,144.27z"/>
		<path class="st20" d="M146.03,388.13c-2-2.9-4.01-5.8-6.01-8.69c0.42-0.4,0.83-0.83,1.22-1.28c1.97,2.91,3.94,5.82,5.9,8.74    C146.78,387.34,146.42,387.74,146.03,388.13z"/>
		<path class="st20" d="M431.24,373.21c-1.69,3.15-3.37,6.31-5.07,9.45c-0.44-0.35-0.86-0.69-1.27-1.04c2.05-2.87,4.1-5.74,6.15-8.6    C431.04,373.01,431.24,373.21,431.24,373.21z"/>
		<path class="st20" d="M131.66,211.6c-1,0-2.01,0-3.01,0c1.98-3.93,3.96-7.86,5.93-11.79c0.2,1.1,0.39,2.2,0.6,3.3    C134.01,205.94,132.84,208.77,131.66,211.6z"/>
		<path class="st21" d="M433.57,200.36c-1.66-2.46-3.32-4.92-4.98-7.38c0.9-0.5,1.8-0.99,2.7-1.49c1.15,2.62,2.29,5.23,3.44,7.85    C434.34,199.68,433.95,200.02,433.57,200.36z"/>
		<path class="st21" d="M422.43,179.09c1.86,2.27,3.73,4.54,5.59,6.81c-0.62,0.58-1.24,1.15-1.85,1.73    c-1.34-1.6-2.68-3.19-4.02-4.79C422.24,181.58,422.33,180.34,422.43,179.09z"/>
		<path class="st20" d="M151.63,394.36c-1.86-2.08-3.73-4.16-5.59-6.23c0.38-0.39,0.75-0.79,1.1-1.22c1.93,2.05,3.86,4.1,5.78,6.16    C152.46,393.48,152.03,393.91,151.63,394.36z"/>
		<path class="st20" d="M386.43,422.23c2.05-1.83,4.1-3.66,6.14-5.49c0,0,1.03,0.99,1.04,1c-2.06,1.89-4.13,3.78-6.2,5.67    C387.08,423.01,386.75,422.62,386.43,422.23z"/>
		<path class="st20" d="M263.78,455.52c0-0.92-0.02-1.85-0.06-2.77c2,0.75,4,1.51,6.01,2.26c-0.02,0.95-0.03,1.9-0.02,2.85    C267.73,457.08,265.75,456.3,263.78,455.52z"/>
		<path class="st20" d="M181.59,146.97c-3.37,1.98-6.74,3.96-10.12,5.95C174.84,150.94,178.21,148.96,181.59,146.97z"/>
		<path class="st20" d="M416.1,393.31c1.84-2.05,3.68-4.09,5.53-6.14c0.39,0.34,0.79,0.68,1.19,1.02c-1.9,2.07-3.8,4.14-5.69,6.22    C416.8,394.03,416.45,393.66,416.1,393.31z"/>
		<path class="st19" d="M336.86,121.12c-2.9-1.04-5.8-2.07-8.71-3.1c0,0.01,0.45-0.54,0.45-0.54c3,0.94,5.99,1.88,8.99,2.81    C337.6,120.28,336.86,121.12,336.86,121.12z"/>
		<path class="st21" d="M360.06,130.16c-2.84-1.08-5.68-2.15-8.52-3.22c0.33-0.4,0.66-0.8,0.99-1.22c2.86,1.08,5.71,2.18,8.57,3.28    C360.75,129.38,360.4,129.77,360.06,130.16z"/>
		<path class="st17" d="M149.23,135.46c-1.23-5.13,0.74-7.1,6.09-6.09C153.29,131.4,151.26,133.43,149.23,135.46z"/>
		<path class="st16" d="M128.81,232.33c1.01-2.98,2.01-5.95,3.02-8.93C130.82,226.38,129.81,229.36,128.81,232.33z"/>
		<path class="st20" d="M125.8,217.41c-1,2.98-2,5.96-3.01,8.94C123.79,223.37,124.79,220.39,125.8,217.41z"/>
		<path class="st20" d="M354.49,440.23c3.01-0.88,6.02-1.76,9.04-2.63c0.01,0.01,0.16,0.16,0.16,0.16c-2.75,1.21-5.5,2.43-8.24,3.65    C355.14,441.02,354.82,440.63,354.49,440.23z"/>
		<path class="st11" d="M403.05,184.21c0.97,2.97,1.94,5.94,2.92,8.91c-0.94,0.68-1.89,1.36-2.83,2.04c-1-2.89-2-5.77-3-8.65    C401.12,185.73,402.09,184.97,403.05,184.21z"/>
		<path class="st21" d="M361.1,129c1.85,1.1,3.7,2.2,5.55,3.31c-0.01,0.01-0.21,0.21-0.21,0.21c-2.12-0.79-4.25-1.57-6.38-2.35    C360.4,129.77,360.75,129.38,361.1,129z"/>
		<path class="st11" d="M299.68,155.26c1.1,1.85,2.2,3.71,3.3,5.56c-0.4,0.37-0.81,0.73-1.22,1.08c-1.07-1.87-2.15-3.74-3.23-5.61    C298.92,155.95,299.3,155.61,299.68,155.26z"/>
		<path class="st16" d="M126.2,232.22c0.91,0.02,1.81,0.03,2.72,0.03c-0.66,1.19-1.33,2.38-1.99,3.57    C126.68,234.62,126.44,233.42,126.2,232.22z"/>
		<path class="st11" d="M302.98,160.82c0.92,2.01,1.84,4.03,2.76,6.04c0,0-0.89,0.79-0.89,0.79c-1.03-1.92-2.06-3.84-3.09-5.75    C302.17,161.55,302.58,161.19,302.98,160.82z"/>
		<path class="st11" d="M305.74,166.86c0.87,2.07,1.73,4.13,2.6,6.2c0,0-0.73,0.58-0.73,0.58c-0.92-2-1.84-3.99-2.76-5.99    L305.74,166.86z"/>
		<path class="st21" d="M152.22,172.29c-1,2.36-2.01,4.73-3.01,7.09C150.21,177.02,151.22,174.65,152.22,172.29z"/>
		<path class="st19" d="M422.43,179.09c-0.09,1.25-0.19,2.49-0.28,3.74c-1.12-1.96-2.24-3.93-3.37-5.89    c-0.01,0.01,0.85-0.73,0.85-0.73C420.56,177.17,421.49,178.13,422.43,179.09z"/>
		<path class="st16" d="M131.78,223.5c-0.02-1.99-0.05-3.99-0.07-5.98C135.46,219.47,135.07,221.47,131.78,223.5z"/>
		<path class="st20" d="M421.62,387.17c1.09-1.85,2.18-3.7,3.27-5.55c0.41,0.35,0.83,0.69,1.27,1.04c-1.11,1.85-2.24,3.69-3.36,5.53    C422.41,387.85,422.02,387.51,421.62,387.17z"/>
		<path class="st20" d="M128.73,211.56c-1,2-2.01,3.99-3.01,5.99C126.72,215.55,127.72,213.55,128.73,211.56z"/>
		<path class="st21" d="M439.49,212.02c-0.99-1.95-1.98-3.9-2.96-5.85c0.46-0.39,0.92-0.78,1.39-1.15c0.95,1.98,1.9,3.96,2.86,5.93    C440.35,211.3,439.92,211.66,439.49,212.02z"/>
		<path class="st21" d="M143.4,185.13c-1,1.99-2,3.98-3,5.98C141.4,189.12,142.4,187.12,143.4,185.13z"/>
		<path class="st20" d="M387.41,423.4c-2.03,0.88-4.06,1.77-6.1,2.65l-0.19-0.19c1.77-1.2,3.54-2.41,5.31-3.62    C386.75,422.62,387.08,423.01,387.41,423.4z"/>
		<path class="st21" d="M434.72,199.33c1.06,1.9,2.11,3.8,3.18,5.7c-0.46,0.37-0.92,0.75-1.38,1.14c-0.99-1.94-1.97-3.88-2.96-5.81    C433.95,200.02,434.34,199.68,434.72,199.33z"/>
		<path class="st20" d="M137.54,193.93c-1,2-2.01,3.99-3.01,5.99C135.53,197.93,136.53,195.93,137.54,193.93z"/>
		<path class="st21" d="M140.49,191c-1.01,1.01-2.02,2.02-3.03,3.02C138.47,193.02,139.48,192.01,140.49,191z"/>
		<path class="st17" d="M137.47,147.2c-0.05-1.11-0.1-2.23-0.14-3.34c1.11,0.06,2.22,0.11,3.32,0.17    C139.59,145.09,138.53,146.14,137.47,147.2z"/>
		<path class="st16" d="M184.59,153.04c1-1,2-2,2.99-2.99C186.58,151.05,185.58,152.05,184.59,153.04z"/>
		<path class="st20" d="M381.32,426.05c-0.98,0.97-1.97,1.94-2.94,2.91c0.01,0.01-0.17-0.17-0.17-0.17    c0.98-0.98,1.96-1.95,2.94-2.92C381.13,425.86,381.32,426.05,381.32,426.05z"/>
		<path class="st20" d="M407.89,405.68c-0.97,0.97-1.94,1.93-2.91,2.9c0,0-0.9-0.88-0.91-0.89c0.97-0.98,1.95-1.94,2.92-2.92    C406.99,404.76,407.89,405.68,407.89,405.68z"/>
		<path class="st21" d="M154.54,397.22c-0.97-0.96-1.94-1.92-2.91-2.87c0.4-0.45,0.83-0.88,1.28-1.29c0.88,1.04,1.75,2.09,2.63,3.14    C155.54,396.2,154.54,397.22,154.54,397.22z"/>
		<path class="st20" d="M366.63,434.85c-0.98,0.97-1.97,1.94-2.95,2.91c0.01,0-0.15-0.14-0.15-0.15c0.98-0.98,1.96-1.95,2.94-2.92    C366.46,434.68,366.63,434.85,366.63,434.85z"/>
		<path class="st19" d="M390,150.19c0.04-1.14,0.08-2.27,0.12-3.41c1.03,0.98,2.05,1.97,3.08,2.95c0,0-0.77,0.92-0.78,0.93    C391.58,150.66,390.78,150.5,390,150.19z"/>
		<path class="st21" d="M146.36,182.2c-1.01,1.01-2.02,2.02-3.03,3.02C144.35,184.21,145.35,183.2,146.36,182.2z"/>
		<path class="st21" d="M149.31,179.25c-1.01,1.01-2.02,2.02-3.03,3.03C147.29,181.27,148.3,180.26,149.31,179.25z"/>
		<path class="st21" d="M369.38,135.42c-0.98-0.98-1.95-1.95-2.94-2.92c-0.01,0.01,0.19-0.19,0.2-0.2c0.98,0.97,1.95,1.95,2.93,2.93    C369.58,135.22,369.38,135.42,369.38,135.42z"/>
		<path class="st20" d="M431.04,373.01c0.98-0.97,1.96-1.94,2.94-2.92c-0.01-0.01,0.15,0.15,0.16,0.16    c-0.97,0.98-1.94,1.96-2.91,2.95C431.24,373.21,431.04,373.01,431.04,373.01z"/>
		<path class="st20" d="M133.88,367.96c-0.2-1.05-0.4-2.1-0.6-3.16c0.59,0.66,1.18,1.32,1.78,1.97    C134.68,367.18,134.28,367.57,133.88,367.96z"/>
		<path class="st20" d="M184.43,146.9c0,0-1.45,0.19-1.45,0.19l-1.46-0.08c0.93-1.37,1.87-2.74,2.8-4.12    C184.36,144.22,184.39,145.56,184.43,146.9z"/>
		<path class="st19" d="M410.06,168.11c-0.94-1.02-1.87-2.04-2.81-3.07c0,0,0.82-0.82,0.82-0.82c1.02,0.94,2.05,1.87,3.08,2.8    C410.8,167.39,410.43,167.75,410.06,168.11z"/>
		<path class="st19" d="M404.78,161.67c1.09,0.86,2.18,1.72,3.28,2.57c0.01-0.01-0.8,0.81-0.81,0.81c-0.88-1.07-1.75-2.15-2.62-3.23    L404.78,161.67z"/>
		<path class="st24" d="M266.57,84.63c1.09-0.06,2.18-0.12,3.27-0.18C268.75,84.51,267.66,84.57,266.57,84.63z"/>
		<path class="st19" d="M404.63,161.82c-0.98-0.98-1.95-1.95-2.93-2.93c-0.01,0.01,0.15-0.16,0.16-0.16    c0.98,0.98,1.94,1.96,2.92,2.94C404.78,161.67,404.63,161.82,404.63,161.82z"/>
		<path class="st16" d="M178.7,159.49c1.01-1.19,2.01-2.39,3.02-3.58C180.71,157.1,179.7,158.29,178.7,159.49z"/>
		<path class="st16" d="M181.64,155.99c1-1,2-2,3-3.01C183.64,153.99,182.64,154.99,181.64,155.99z"/>
		<path class="st11" d="M297.2,151.77c0.83,1.16,1.65,2.33,2.48,3.49c-0.38,0.34-0.76,0.69-1.14,1.02    c-0.92-0.98-1.85-1.95-2.78-2.92C296.23,152.82,296.71,152.29,297.2,151.77z"/>
		<path class="st19" d="M114.21,305.49c0.4,0.49,0.8,0.97,1.21,1.46c-0.48-0.41-0.96-0.82-1.44-1.23    C113.97,305.72,114.21,305.49,114.21,305.49z"/>
		<path class="st20" d="M130.14,360.76c-0.22-0.31-0.62-0.64-0.59-0.93c0.03-0.29,0.48-0.54,0.75-0.81    c0.21,0.31,0.62,0.64,0.59,0.93C130.87,360.25,130.41,360.5,130.14,360.76z"/>
		<path class="st25" d="M222.8,85.54c-5.97,2.65-11.94,5.3-17.92,7.95c-3.86-2.75-7.71-5.51-11.56-8.26    c8.92-3.7,17.84-7.4,26.77-11.09C220.99,77.94,221.9,81.74,222.8,85.54z"/>
		<path class="st25" d="M190.34,88.26c-0.98,0.08-1.95,0.16-2.93,0.24C188.39,88.42,189.37,88.34,190.34,88.26z"/>
		<path class="st10" d="M357.62,484.69c2.07-2.58,3.61-6.1,6.29-7.6c18.19-10.23,36.73-19.83,52.1-34.35    c0.48-0.45,2.2,0.41,3.35,0.66c-0.95,2-1.9,4-2.85,6.01C398.98,464.69,379.86,477.3,357.62,484.69z"/>
		<path class="st10" d="M428.1,431.73c3.32-6.48,5.99-13.62,14.7-14.73C438.04,429.17,436.18,431.03,428.1,431.73z"/>
		<path class="st10" d="M442.72,417.09c-0.9-6.83,1.9-10.88,8.86-11.82C451.44,411.31,448.71,415.42,442.72,417.09z"/>
		<path class="st10" d="M425.1,437.69c-2.9-3.96-0.17-5.07,3.01-5.96C431.39,435.87,428.5,436.91,425.1,437.69z"/>
		<path class="st10" d="M422.17,440.59c-0.04-1.05-0.07-2.11-0.11-3.16c1.05,0.04,2.11,0.07,3.16,0.11    C424.2,438.56,423.19,439.57,422.17,440.59z"/>
		<path class="st10" d="M419.24,443.53c-0.04-1.05-0.07-2.11-0.11-3.16c1.05,0.04,2.11,0.07,3.16,0.11    C421.27,441.49,420.25,442.51,419.24,443.53z"/>
		<path class="st10" d="M340.01,493.57c-0.19-0.88-0.66-2.49-0.55-2.54c6.09-2.24,12.22-4.36,18.36-6.48    C351.88,487.56,345.95,490.57,340.01,493.57z"/>
		<path class="st10" d="M334.39,493.73c1.96-0.11,3.93-0.22,5.89-0.34c-2,0.93-4.01,1.86-6.01,2.79    C334.25,495.36,334.29,494.54,334.39,493.73z"/>
		<path class="st6" d="M325.43,493.48c1.81-3.19,3.77-3.15,5.87-0.27C329.34,493.3,327.39,493.39,325.43,493.48z"/>
		<path class="st26" d="M315.64,305.86c-12.47,3.12-22.53-2.46-36.11-20.01C294.87,276.65,309.51,283.51,315.64,305.86z"/>
		<path class="st27" d="M276,231.85c2.68-9.79,5.03-18.39,8.01-29.27c8.6,9.86,13.88,18.64,14.88,31.01    C291.08,233,284.15,232.47,276,231.85z"/>
		<path class="st28" d="M190.58,335.86c6.39-7.64,12.86-14.01,17.61-21.47c4.74-7.44,7.76-15.99,12.16-25.37    C223.03,307.7,208.08,330.89,190.58,335.86z"/>
		<path class="st9" d="M400.15,186.5c1,2.88,2,5.77,3,8.65c2.63,15.83,3.75,31.55-3.78,49.55c2.3-23.35,1.72-43.64-4-64.2    C396.96,182.5,398.56,184.5,400.15,186.5z"/>
		<path class="st4" d="M295.76,153.36c0.93,0.97,1.86,1.94,2.78,2.92c1.07,1.88,2.15,3.74,3.22,5.62c1.03,1.92,2.06,3.84,3.09,5.76    c0.92,1.99,1.84,3.99,2.76,5.99c-0.05,2.86-0.1,5.73-0.15,8.59c-0.82,0.03-1.64,0.04-2.46,0.03c-3.92-7.67-7.9-15.31-11.74-23.03    C291.9,156.5,290.85,153.57,295.76,153.36z"/>
		<path class="st5" d="M305,182.26c0.82,0.02,1.64,0.01,2.46-0.03c0,2.25,0,4.49,0,6.74c-0.63,0.02-1.27,0.05-1.9,0.07    C305.38,186.78,305.19,184.52,305,182.26z"/>
		<path class="st27" d="M313.76,490.6c-1.9,1.03-3.79,2.05-5.69,3.08c-2.39-1.28-4.78-2.56-7.17-3.85    C307.93,484.14,312.08,482.99,313.76,490.6z"/>
	</g>
</g>
</svg>